<?xml version="1.0" standalone="no"?>
<!DOCTYPE svg PUBLIC "-//W3C//DTD SVG 20010904//EN"
 "http://www.w3.org/TR/2001/REC-SVG-20010904/DTD/svg10.dtd">
<svg version="1.0" xmlns="http://www.w3.org/2000/svg"
 width="700.000000pt" height="700.000000pt" viewBox="0 0 700.000000 700.000000"
 preserveAspectRatio="xMidYMid meet">
<metadata>
Created by potrace 1.14, written by Peter Selinger 2001-2017
</metadata>
<g transform="translate(0.000000,700.000000) scale(0.100000,-0.100000)"
fill="#000000" stroke="none">
<path d="M1497 5834 c-1 -1 -71 -5 -156 -8 -85 -4 -157 -9 -160 -11 -4 -2 -34
-6 -67 -9 -52 -5 -112 -14 -279 -42 -76 -13 -160 -67 -202 -129 -52 -76 -50
14 -49 -2025 l1 -1895 21 -46 c65 -141 195 -200 364 -166 41 9 102 19 135 23
33 3 62 8 65 9 29 17 485 26 635 12 253 -23 525 -94 740 -191 17 -8 55 -24 85
-37 161 -67 506 -257 650 -357 96 -67 144 -86 220 -85 78 0 116 15 224 87 245
163 576 336 816 426 172 65 356 117 480 136 79 12 93 13 175 21 148 14 595 6
624 -11 3 -2 35 -7 71 -10 36 -4 74 -9 85 -11 123 -27 177 -29 240 -10 70 22
145 90 177 160 l23 50 0 1910 c0 2091 5 1933 -59 2023 -47 67 -121 105 -247
126 -19 3 -45 8 -58 10 -13 3 -49 8 -80 12 -31 3 -65 8 -76 10 -10 2 -51 6
-90 10 -38 3 -90 7 -115 10 -53 5 -429 5 -480 0 -19 -2 -71 -7 -115 -11 -44
-3 -87 -8 -95 -10 -8 -2 -28 -6 -45 -9 -162 -27 -157 -26 -275 -56 -257 -66
-561 -190 -870 -356 -151 -81 -183 -99 -247 -140 -29 -19 -58 -34 -63 -34 -5
0 -33 15 -62 33 -84 54 -293 168 -412 226 -179 87 -227 108 -431 185 -99 38
-311 100 -385 112 -14 3 -31 7 -38 9 -8 3 -37 8 -65 11 -29 4 -55 8 -58 10 -4
2 -31 6 -60 9 -30 4 -67 8 -84 10 -44 7 -403 23 -408 19z"/>
</g>
</svg>
